<svg xmlns="http://www.w3.org/2000/svg" xmlns:xlink="http://www.w3.org/1999/xlink" width="600" zoomAndPan="magnify" viewBox="0 0 450 449.999984" height="600" preserveAspectRatio="xMidYMid meet" version="1.0">
<path fill="#891b1e" d="M 225 59.46875 C 316.300781 59.46875 390.582031 133.726562 390.582031 225 C 390.582031 316.273438 316.300781 390.53125 225 390.53125 C 133.699219 390.53125 59.417969 316.273438 59.417969 225 C 59.417969 133.726562 133.699219 59.46875 225 59.46875 Z M 225 405 C 273.074219 405 318.273438 386.28125 352.269531 352.289062 C 386.273438 318.289062 405 273.082031 405 225 C 405 176.914062 386.273438 131.710938 352.269531 97.710938 C 318.273438 63.71875 273.074219 45 225 45 C 176.925781 45 131.726562 63.71875 97.730469 97.710938 C 63.726562 131.710938 45 176.914062 45 225 C 45 273.082031 63.726562 318.289062 97.730469 352.289062 C 131.726562 386.28125 176.925781 405 225 405 " fill-opacity="1" fill-rule="nonzero"/>
<path fill="#891b1e" d="M 143.179688 204.25 L 306.820312 204.25 L 306.820312 307.183594 C 306.820312 307.929688 306.214844 308.535156 305.472656 308.535156 L 144.527344 308.535156 C 143.785156 308.535156 143.179688 307.929688 143.179688 307.183594 Z M 143.179688 159.945312 C 143.179688 159.199219 143.785156 158.59375 144.527344 158.59375 L 167.019531 158.59375 L 167.019531 165.460938 C 167.019531 168.660156 169.625 171.265625 172.828125 171.265625 L 188.433594 171.265625 C 191.632812 171.265625 194.238281 168.660156 194.238281 165.460938 L 194.238281 158.59375 L 255.761719 158.59375 L 255.761719 165.460938 C 255.761719 168.660156 258.367188 171.265625 261.566406 171.265625 L 277.171875 171.265625 C 280.375 171.265625 282.980469 168.660156 282.980469 165.460938 L 282.980469 158.59375 L 305.472656 158.59375 C 306.214844 158.59375 306.820312 159.199219 306.820312 159.945312 L 306.820312 189.828125 L 143.179688 189.828125 Z M 176.410156 138.949219 L 184.851562 138.949219 L 184.851562 161.878906 L 176.410156 161.878906 Z M 265.148438 138.949219 L 273.589844 138.949219 L 273.589844 161.878906 L 265.148438 161.878906 Z M 144.527344 322.957031 L 305.472656 322.957031 C 314.167969 322.957031 321.242188 315.878906 321.242188 307.183594 L 321.242188 159.945312 C 321.242188 151.246094 314.167969 144.171875 305.472656 144.171875 L 282.980469 144.171875 L 282.980469 135.367188 C 282.980469 132.164062 280.375 129.5625 277.171875 129.5625 L 261.566406 129.5625 C 258.367188 129.5625 255.761719 132.164062 255.761719 135.367188 L 255.761719 144.171875 L 194.238281 144.171875 L 194.238281 135.367188 C 194.238281 132.164062 191.632812 129.5625 188.433594 129.5625 L 172.828125 129.5625 C 169.625 129.5625 167.019531 132.164062 167.019531 135.367188 L 167.019531 144.171875 L 144.527344 144.171875 C 135.832031 144.171875 128.757812 151.246094 128.757812 159.945312 L 128.757812 307.183594 C 128.757812 315.878906 135.832031 322.957031 144.527344 322.957031 " fill-opacity="1" fill-rule="nonzero"/>
<path fill="#891b1e" d="M 190.070312 266.371094 L 173.183594 266.371094 L 173.183594 281.949219 L 190.070312 281.949219 L 190.070312 266.371094 " fill-opacity="1" fill-rule="nonzero"/><path fill="#891b1e" d="M 233.445312 266.371094 L 216.554688 266.371094 L 216.554688 281.949219 L 233.445312 281.949219 L 233.445312 266.371094 " fill-opacity="1" fill-rule="nonzero"/><path fill="#891b1e" d="M 276.816406 266.371094 L 259.929688 266.371094 L 259.929688 281.949219 L 276.816406 281.949219 L 276.816406 266.371094 " fill-opacity="1" fill-rule="nonzero"/><path fill="#891b1e" d="M 190.070312 229.847656 L 173.183594 229.847656 L 173.183594 245.421875 L 190.070312 245.421875 L 190.070312 229.847656 " fill-opacity="1" fill-rule="nonzero"/><path fill="#891b1e" d="M 233.445312 229.847656 L 216.554688 229.847656 L 216.554688 245.421875 L 233.445312 245.421875 L 233.445312 229.847656 " fill-opacity="1" fill-rule="nonzero"/><path fill="#891b1e" d="M 276.816406 229.847656 L 259.929688 229.847656 L 259.929688 245.421875 L 276.816406 245.421875 L 276.816406 229.847656 " fill-opacity="1" fill-rule="nonzero"/></svg>